<svg width="50" height="50" viewBox="0 0 50 50" fill="none" xmlns="http://www.w3.org/2000/svg">
<path d="M50 8.82352C50 13.6966 46.0496 17.6471 41.1765 17.6471C36.3034 17.6471 32.3529 13.6966 32.3529 8.82352C32.3529 3.95044 36.3034 0 41.1765 0C46.0496 0 50 3.95044 50 8.82352Z" fill="white"/>
<path d="M27.7118 2.94116C26.9206 4.74411 26.4706 6.7294 26.4706 8.82352C26.4706 12.7238 28.02 16.4643 30.7778 19.2222C33.5357 21.98 37.2762 23.5294 41.1765 23.5294C43.2021 23.5284 45.2054 23.1057 47.0588 22.2882V44.1176C47.0588 47.3618 44.4206 50 41.1765 50H5.88235C2.63824 50 0 47.3618 0 44.1176V8.82352C0 5.57941 2.63824 2.94116 5.88235 2.94116H27.7118Z" fill="white"/>
</svg>
